<svg xmlns="http://www.w3.org/2000/svg" width="32" height="32" viewBox="0 0 32 32">
    <g fill="#FFF" fill-rule="nonzero">
        <path d="M10.633 8.896h7.636c.227 0 .41-.182.41-.405a.408.408 0 0 0-.41-.405h-7.636a.408.408 0 0 0-.41.405c0 .223.183.405.41.405zM2.91 12.855h7.635c.227 0 .411-.182.411-.405a.408.408 0 0 0-.41-.405H2.91a.408.408 0 0 0-.411.405c0 .223.184.405.41.405zM5.228 17.021c0 .224.184.405.41.405h7.637c.227 0 .41-.181.41-.405a.408.408 0 0 0-.41-.405H5.639a.408.408 0 0 0-.411.405zM9.17 21.727H2.41a.408.408 0 0 0-.41.405c0 .224.184.405.41.405h6.76c.227 0 .411-.181.411-.405a.408.408 0 0 0-.41-.405z"/>
        <path d="M24.132 11.434c-1.24 0-2.245-.99-2.245-2.211 0-1.222 1.005-2.212 2.245-2.212 1.24 0 2.244.99 2.244 2.212 0 1.221-1.005 2.211-2.244 2.211zm3.691-.637c.842-1.16 2.808-.047 1.957 1.127-1.644 2.27-3.953 3.134-6.381 2.4a88.201 88.201 0 0 0-2.181 3.93c1.027.518 2.239 1.43 2.863 1.92.778.611 1.775 3.027 2.37 4.238.637 1.3-1.416 2.243-2.052.948-.524-1.067-1.407-3.19-1.92-3.607-.514-.417-2.2-1.593-3.487-2.035a1.243 1.243 0 0 1-.176-.076c-1.575 1.97-4.66 2.9-7.29 1.385-1.387-.799-.133-2.768 1.258-1.967 1.927 1.111 3.932-.309 4.84-2.087.909-1.779 1.552-3.03 2.289-4.29-1.438-.451-2.753-.039-3.787 1.388-.84 1.161-2.807.048-1.957-1.127 2.001-2.761 4.985-3.447 7.972-1.7.124.074.685.378.811.452 1.857 1.086 3.583.88 4.871-.899z"/>
    </g>
</svg>
