<svg xmlns="http://www.w3.org/2000/svg" width="32" height="32" viewBox="0 0 32 32">
    <defs>
        <linearGradient id="a" x1="50%" x2="50%" y1="0%" y2="100%">
            <stop offset="0%" stop-color="#F9643D"/>
            <stop offset="100%" stop-color="#F0341D"/>
        </linearGradient>
    </defs>
    <path fill="url(#a)" fill-rule="nonzero" d="M12.972 27.968c.234.125.481-.145.338-.368-.78-1.213-1.517-3.253-.341-5.88 1.96-4.382 3.152-6.652 3.152-6.652s.634 2.648 2.354 5.003c1.655 2.267 2.56 5.117 1.1 7.492-.137.223.105.485.338.366 1.807-.924 3.835-2.78 4.064-6.47.084-1.129-.042-2.708-.675-4.701-.813-2.526-1.813-3.704-2.392-4.21a.259.259 0 0 0-.428.212c.169 2.725-.856 3.417-1.44 1.858-.233-.622-.369-1.699-.369-3.01 0-2.183-.633-4.43-2.029-6.256a7.085 7.085 0 0 0-1.275-1.297.259.259 0 0 0-.416.223c.107 1.48.01 5.721-3.71 10.788-3.374 4.7-2.067 8.31-1.603 9.287.887 1.873 2.124 2.973 3.332 3.615z"/>
</svg>
