<svg xmlns="http://www.w3.org/2000/svg" width="32" height="32" viewBox="0 0 32 32">
    <path fill="#FFF" fill-rule="nonzero" d="M23.788 7.773A6.202 6.202 0 0 0 20.787 7 6.201 6.201 0 0 0 16 9.252a6.21 6.21 0 0 0-7.788-1.48A6.227 6.227 0 0 0 5 13.227c0 .67.109 1.314.307 1.918.085.385.231.78.417 1.176h4.013l1.007-1.689a.832.832 0 0 1 .7-.406c.262-.018.558.138.714.38l1.453 2.243 1.788-4.835a.833.833 0 0 1 .78-.545h.001c.348 0 .66.217.781.543l1.602 4.309h2.754c.463 0 .833.373.833.833 0 .461-.37.835-.833.835h-3.332a.837.837 0 0 1-.782-.543l-1.02-2.745-1.582 4.288a.834.834 0 0 1-1.48.164l-1.63-2.515-.564.945a.837.837 0 0 1-.716.407H6.738C9.712 22.041 16.003 26 16.003 26s9.625-6.056 10.691-10.856a6.23 6.23 0 0 0-2.906-7.371z"/>
</svg>
