<svg xmlns="http://www.w3.org/2000/svg" width="32" height="32" viewBox="0 0 32 32">
    <path fill="#FFF" fill-rule="nonzero" d="M27.047 11.195c-.467 0-.845.395-.845.882 0 .198.065.379.17.526l-1.22 2.185a2.873 2.873 0 0 0-.468.031V12.89a.884.884 0 0 0 .517-.813c0-.487-.378-.882-.845-.882-.467 0-.846.395-.846.882 0 .366.213.68.517.813v2.088c-.817.26-1.956.838-3.626 2.022.208-.362.838-1.673-1.096-1.952-.427-2.859-2.79-5.048-5.65-5.048-3.162 0-5.726 2.675-5.726 5.974 0 .201.01.4.029.596 0 0-2.602 1.143-.508 2.353-.909.474-2.65 1.79-2.65 1.79s-2.044 1.241.403 1.235h15.248s1.589.006 3.004-2.156c1.568-2.395 3.686-2.607 3.686-3.608 0-.744-.626-1.138-1.28-1.302l1.08-1.934c.036.005.07.011.106.011.468 0 .846-.394.846-.882 0-.487-.378-.882-.846-.882z"/>
</svg>
