<svg xmlns="http://www.w3.org/2000/svg" xmlns:xlink="http://www.w3.org/1999/xlink" width="32" height="32" viewBox="0 0 32 32">
    <defs>
        <path id="b" d="M25 11.75h-3.37a2 2 0 0 1-1.872-1.295l-.868-2.307a1 1 0 0 0-.936-.648h-3.908a1 1 0 0 0-.936.648l-.868 2.307a2 2 0 0 1-1.872 1.295H7a1 1 0 0 0-1 1V23.5a1 1 0 0 0 1 1h18a1 1 0 0 0 1-1V12.75a1 1 0 0 0-1-1zM21.6 9.7H26c1.105 0 2 .94 2 2.1v12.6c0 1.16-.895 2.1-2 2.1H6c-1.105 0-2-.94-2-2.1V11.8c0-1.16.895-2.1 2-2.1h4.4l1.097-2.88c.304-.797 1.04-1.32 1.857-1.32h5.292c.818 0 1.553.523 1.857 1.32L21.6 9.7zM16 20.5a3 3 0 1 0 0-6 3 3 0 0 0 0 6zm0 2a5 5 0 1 1 0-10 5 5 0 0 1 0 10z"/>
        <filter id="a" width="102.5%" height="104.8%" x="-1.3%" y="-1.4%" filterUnits="objectBoundingBox">
            <feMorphology in="SourceAlpha" operator="dilate" radius=".1" result="shadowSpreadOuter1"/>
            <feOffset dy=".4" in="shadowSpreadOuter1" result="shadowOffsetOuter1"/>
            <feComposite in="shadowOffsetOuter1" in2="SourceAlpha" operator="out" result="shadowOffsetOuter1"/>
            <feColorMatrix in="shadowOffsetOuter1" values="0 0 0 0 0 0 0 0 0 0 0 0 0 0 0 0 0 0 0.139696241 0"/>
        </filter>
    </defs>
    <g fill="none" fill-rule="nonzero">
        <use fill="#000" filter="url(#a)" xlink:href="#b"/>
        <use fill="#FFF" stroke="#000" stroke-opacity=".1" stroke-width=".2" xlink:href="#b"/>
    </g>
</svg>
