<svg xmlns="http://www.w3.org/2000/svg" xmlns:xlink="http://www.w3.org/1999/xlink" width="32" height="32" viewBox="0 0 32 32">
    <defs>
        <path id="b" d="M4.002 13.6C4.942 8.152 9.822 4 15.698 4c5.133 0 9.504 3.167 11.156 7.599l.204-.562a.988.988 0 0 1 1.858.676l-.647 1.777-.315.865a1 1 0 0 1-1.281.597l-2.803-1.02a.96.96 0 0 1 .657-1.804l.487.178c-1.36-3.721-5.018-6.386-9.316-6.386-4.782 0-8.77 3.298-9.686 7.68h-.005c-.089.524-.46.96-1.005.96-.546 0-1.034-.402-1-.96z"/>
        <filter id="a" width="103.1%" height="111%" x="-1.6%" y="-3.6%" filterUnits="objectBoundingBox">
            <feMorphology in="SourceAlpha" operator="dilate" radius=".2" result="shadowSpreadOuter1"/>
            <feOffset dy=".4" in="shadowSpreadOuter1" result="shadowOffsetOuter1"/>
            <feComposite in="shadowOffsetOuter1" in2="SourceAlpha" operator="out" result="shadowOffsetOuter1"/>
            <feColorMatrix in="shadowOffsetOuter1" values="0 0 0 0 0 0 0 0 0 0 0 0 0 0 0 0 0 0 0.139696241 0"/>
        </filter>
        <path id="d" d="M3.002 26.6c.94-5.448 5.82-9.6 11.696-9.6 5.133 0 9.504 3.167 11.156 7.599l.204-.562a.988.988 0 0 1 1.858.676l-.647 1.777-.315.865a1 1 0 0 1-1.281.597l-2.803-1.02a.96.96 0 0 1 .657-1.804l.487.178c-1.36-3.721-5.018-6.386-9.316-6.386-4.782 0-8.77 3.298-9.686 7.68h-.005c-.089.524-.46.96-1.005.96-.546 0-1.034-.402-1-.96z"/>
        <filter id="c" width="103.1%" height="111%" x="-1.6%" y="-3.6%" filterUnits="objectBoundingBox">
            <feMorphology in="SourceAlpha" operator="dilate" radius=".2" result="shadowSpreadOuter1"/>
            <feOffset dy=".4" in="shadowSpreadOuter1" result="shadowOffsetOuter1"/>
            <feComposite in="shadowOffsetOuter1" in2="SourceAlpha" operator="out" result="shadowOffsetOuter1"/>
            <feColorMatrix in="shadowOffsetOuter1" values="0 0 0 0 0 0 0 0 0 0 0 0 0 0 0 0 0 0 0.139696241 0"/>
        </filter>
    </defs>
    <g fill="none" fill-rule="nonzero">
        <use fill="#000" filter="url(#a)" xlink:href="#b"/>
        <path fill="#FFF" fill-rule="evenodd" stroke="#000" stroke-opacity=".1" stroke-width=".2" d="M26.851 11.314l.113-.312a1.088 1.088 0 1 1 2.046.745l-.962 2.642a1.1 1.1 0 0 1-1.41.657l-2.802-1.02a1.06 1.06 0 1 1 .725-1.992l.282.103c-1.43-3.647-5.046-6.117-9.145-6.117-4.675 0-8.67 3.207-9.588 7.6l-.006.005c-.105.6-.535 1.035-1.102 1.035-.625 0-1.136-.468-1.1-1.066l.001-.011C4.863 8.026 9.836 3.9 15.698 3.9c4.983 0 9.385 2.988 11.153 7.414z"/>
        <g transform="rotate(180 15.5 22.5)">
            <use fill="#000" filter="url(#c)" xlink:href="#d"/>
            <path fill="#FFF" fill-rule="evenodd" stroke="#000" stroke-opacity=".1" stroke-width=".2" d="M25.851 24.314l.113-.312a1.088 1.088 0 1 1 2.046.745l-.962 2.642a1.1 1.1 0 0 1-1.41.657l-2.802-1.02a1.06 1.06 0 1 1 .725-1.992l.282.103c-1.43-3.647-5.046-6.117-9.145-6.117-4.675 0-8.67 3.207-9.588 7.6l-.006.005c-.105.6-.535 1.035-1.102 1.035-.625 0-1.136-.468-1.1-1.066l.001-.011c.96-5.557 5.933-9.683 11.795-9.683 4.983 0 9.385 2.988 11.153 7.414z"/>
        </g>
    </g>
</svg>
