<svg xmlns="http://www.w3.org/2000/svg" width="32" height="32" viewBox="0 0 32 32">
    <g fill="none" fill-rule="evenodd">
        <circle cx="16" cy="16" r="13.5" stroke="#FFF"/>
        <path fill="#FFF" fill-rule="nonzero" d="M6.175 17H3a1 1 0 0 1 0-2h3.714a1 1 0 0 1 .836.45l2.233 3.4 3.289-8.221c.335-.839 1.521-.839 1.856 0L18 18.309l3.075-7.68a1 1 0 0 1 1.764-.178L25.825 15H29a1 1 0 0 1 0 2h-3.714a1 1 0 0 1-.836-.451l-2.23-3.398-3.292 8.22c-.335.839-1.521.838-1.856 0L14 13.693l-3.072 7.678a1 1 0 0 1-1.764.178L6.174 17z"/>
    </g>
</svg>
