<svg xmlns="http://www.w3.org/2000/svg" width="32" height="32" viewBox="0 0 32 32">
    <g fill="none" fill-rule="evenodd">
        <path fill="#FFF" fill-rule="nonzero" d="M13 18v7a1 1 0 0 1-2 0v-7H9a1 1 0 0 1 0-2h6a1 1 0 0 1 0 2h-2zM21 22v3a1 1 0 0 1-2 0v-3h-2a1 1 0 0 1 0-2h6a1 1 0 0 1 0 2h-2z"/>
        <rect width="2" height="8" x="11" y="6" fill="#FFF" fill-rule="nonzero" rx="1"/>
        <rect width="2" height="12" x="19" y="6" fill="#FFF" fill-rule="nonzero" rx="1"/>
        <circle cx="16" cy="16" r="13.5" stroke="#FFF"/>
    </g>
</svg>
