<svg xmlns="http://www.w3.org/2000/svg" width="32" height="32" viewBox="0 0 32 32">
    <path fill="none" fill-rule="evenodd" stroke="#FFF" d="M7.691 18.435a1.548 1.548 0 0 1 .767 2.4l-.774 1.034a.548.548 0 0 0 .051.716l1.68 1.68a.548.548 0 0 0 .716.051l1.034-.774a1.548 1.548 0 0 1 2.4.767l.582 1.81c.073.227.284.381.522.381h2.662a.548.548 0 0 0 .522-.38l.582-1.811a1.548 1.548 0 0 1 2.4-.767l1.034.774a.548.548 0 0 0 .716-.051l1.68-1.68a.548.548 0 0 0 .051-.716l-.774-1.034a1.548 1.548 0 0 1 .767-2.4l1.81-.582a.548.548 0 0 0 .381-.522V14.67a.548.548 0 0 0-.38-.522l-1.811-.582a1.548 1.548 0 0 1-.767-2.4l.774-1.034a.548.548 0 0 0-.051-.716l-1.68-1.68a.548.548 0 0 0-.716-.051l-1.034.774a1.548 1.548 0 0 1-2.4-.767l-.582-1.81a.548.548 0 0 0-.522-.381H14.67a.548.548 0 0 0-.522.38l-.582 1.811a1.548 1.548 0 0 1-2.4.767l-1.034-.774a.548.548 0 0 0-.716.051l-1.68 1.68a.548.548 0 0 0-.051.716l.774 1.034a1.548 1.548 0 0 1-.767 2.4l-1.81.582a.548.548 0 0 0-.381.522v2.662c0 .238.154.45.38.522l1.811.582zm10.885-5.01a3.643 3.643 0 1 1-5.152 5.15 3.643 3.643 0 0 1 5.152-5.15z"/>
</svg>
